<mxfile host="app.diagrams.net" modified="2021-06-15T07:52:27.564Z" agent="5.0 (Windows NT 10.0; Win64; x64) AppleWebKit/537.36 (KHTML, like Gecko) Chrome/91.0.4472.77 Safari/537.36" etag="8e0ijvHgzP2zon2qQCAO" version="14.7.7" type="github">
  <diagram id="NIDPMBfKksr7cMe8wytX" name="Page-1">
    <mxGraphModel dx="782" dy="475" grid="1" gridSize="10" guides="1" tooltips="1" connect="1" arrows="1" fold="1" page="1" pageScale="1" pageWidth="850" pageHeight="1100" math="0" shadow="0">
      <root>
        <mxCell id="0" />
        <mxCell id="1" parent="0" />
        <mxCell id="H-T82s3oVhORbkwSaDWH-3" value="worker thread" style="rounded=1;whiteSpace=wrap;html=1;opacity=40;dashed=1;dashPattern=1 1;verticalAlign=top;" vertex="1" parent="1">
          <mxGeometry x="350" y="130" width="460" height="380" as="geometry" />
        </mxCell>
        <mxCell id="H-T82s3oVhORbkwSaDWH-4" style="edgeStyle=orthogonalEdgeStyle;rounded=0;orthogonalLoop=1;jettySize=auto;html=1;" edge="1" parent="1" source="H-T82s3oVhORbkwSaDWH-1" target="H-T82s3oVhORbkwSaDWH-2">
          <mxGeometry relative="1" as="geometry" />
        </mxCell>
        <mxCell id="H-T82s3oVhORbkwSaDWH-1" value="client&lt;br&gt;(Downstream)" style="rounded=1;whiteSpace=wrap;html=1;" vertex="1" parent="1">
          <mxGeometry x="90" y="190" width="120" height="60" as="geometry" />
        </mxCell>
        <mxCell id="H-T82s3oVhORbkwSaDWH-6" value="" style="edgeStyle=orthogonalEdgeStyle;rounded=0;orthogonalLoop=1;jettySize=auto;html=1;" edge="1" parent="1" source="H-T82s3oVhORbkwSaDWH-2" target="H-T82s3oVhORbkwSaDWH-5">
          <mxGeometry relative="1" as="geometry" />
        </mxCell>
        <mxCell id="H-T82s3oVhORbkwSaDWH-2" value="listener" style="rounded=1;whiteSpace=wrap;html=1;" vertex="1" parent="1">
          <mxGeometry x="370" y="190" width="120" height="60" as="geometry" />
        </mxCell>
        <mxCell id="H-T82s3oVhORbkwSaDWH-5" value="listener filter" style="rounded=1;whiteSpace=wrap;html=1;verticalAlign=middle;" vertex="1" parent="1">
          <mxGeometry x="370" y="310" width="120" height="60" as="geometry" />
        </mxCell>
      </root>
    </mxGraphModel>
  </diagram>
</mxfile>
